<?xml version="1.0" standalone="no"?>
<!DOCTYPE svg PUBLIC "-//W3C//DTD SVG 20010904//EN"
 "http://www.w3.org/TR/2001/REC-SVG-20010904/DTD/svg10.dtd">
<svg version="1.0" xmlns="http://www.w3.org/2000/svg"
 width="1000.000000pt" height="1000.000000pt" viewBox="0 0 1000.000000 1000.000000"
 preserveAspectRatio="xMidYMid meet">
<metadata>
Created by potrace 1.11, written by Peter Selinger 2001-2013
</metadata>
<g transform="translate(0.000000,1000.000000) scale(0.100000,-0.100000)"
fill="#000000" stroke="none">
<path d="M3070 6327 c0 -5 95 -197 211 -428 l211 -419 39 0 c22 0 39 4 39 9 0
5 -85 178 -190 384 -104 207 -190 378 -190 381 0 3 756 6 1680 6 924 0 1680
-3 1680 -6 0 -3 -85 -174 -190 -381 -104 -206 -190 -379 -190 -382 0 -4 17 -8
39 -9 l38 -3 212 420 c116 230 211 423 211 428 0 4 -810 8 -1800 8 -990 0
-1800 -4 -1800 -8z"/>
<path d="M2131 5314 c-79 -33 -94 -98 -89 -404 3 -211 5 -239 23 -275 24 -47
71 -77 127 -80 87 -5 147 36 168 116 15 54 15 483 1 537 -28 102 -129 149
-230 106z m120 -81 c30 -25 36 -87 35 -316 -1 -210 -3 -228 -21 -253 -27 -35
-56 -45 -86 -30 -47 23 -53 54 -54 286 -1 243 4 285 41 318 28 24 54 23 85 -5z"/>
<path d="M4843 5319 c-18 -5 -43 -24 -57 -42 -40 -54 -48 -120 -44 -367 4
-251 13 -291 71 -332 40 -29 129 -31 170 -3 33 22 62 74 71 131 7 40 7 41 -25
48 -47 9 -46 10 -53 -39 -13 -80 -64 -113 -113 -71 l-28 24 -3 245 c-2 135 1
260 5 278 5 18 20 41 34 51 44 33 88 0 101 -77 3 -16 10 -19 38 -17 42 3 50
15 39 56 -19 67 -32 86 -73 106 -45 21 -81 24 -133 9z"/>
<path d="M6945 5316 c-75 -34 -105 -129 -81 -258 9 -52 54 -108 131 -164 75
-55 95 -90 95 -164 0 -55 -25 -95 -65 -102 -49 -10 -88 43 -97 132 -3 22 -7
25 -42 23 -22 -2 -41 -4 -43 -6 -8 -9 21 -125 39 -155 48 -79 189 -93 252 -25
58 62 58 213 0 290 -13 17 -54 53 -90 80 -80 58 -104 101 -99 178 5 82 37 120
88 107 26 -7 57 -60 57 -100 0 -33 0 -33 38 -26 20 4 40 11 43 16 10 15 -12
101 -33 131 -11 16 -32 33 -47 39 -42 17 -113 19 -146 4z"/>
<path d="M7376 5315 c-90 -32 -104 -79 -104 -365 -1 -291 11 -339 90 -378 66
-33 158 -19 199 32 35 43 42 96 44 316 1 222 -6 296 -32 341 -34 57 -122 81
-197 54z m111 -80 c25 -25 34 -110 33 -313 -2 -252 -12 -289 -85 -297 -22 -3
-48 19 -62 53 -23 55 -22 487 2 531 25 49 77 61 112 26z"/>
<path d="M1675 5312 l-30 -3 0 -369 0 -370 42 0 c49 0 46 -15 44 173 l-1 107
27 0 c27 0 29 -3 67 -140 l39 -140 44 0 c24 0 43 5 43 10 0 6 -19 73 -41 149
l-41 139 21 21 c38 38 53 90 53 192 0 109 -21 175 -67 205 -27 17 -139 32
-200 26z m158 -104 c27 -36 34 -166 11 -226 -17 -47 -34 -59 -79 -58 l-30 1
-2 158 -1 158 40 -3 c31 -2 46 -10 61 -30z"/>
<path d="M2481 5312 c-43 -3 -43 -4 -37 -35 6 -28 22 -132 41 -262 3 -22 10
-65 15 -95 5 -30 12 -75 15 -100 3 -25 8 -52 10 -60 2 -8 7 -37 10 -65 3 -27
8 -59 10 -70 2 -11 4 -28 4 -37 1 -14 10 -18 46 -18 52 0 46 -13 72 149 4 25
7 48 8 51 1 3 12 74 25 158 24 153 32 165 45 70 5 -39 39 -245 50 -308 3 -14
8 -46 11 -72 l7 -48 48 0 c44 0 49 2 50 23 0 12 2 29 3 37 2 8 7 40 11 70 4
30 9 64 10 75 2 11 7 40 10 65 3 25 12 83 20 130 8 47 17 105 20 130 3 25 8
56 10 70 2 14 7 48 11 75 3 28 8 53 11 58 2 4 -2 7 -9 8 -7 0 -26 2 -41 3 -35
2 -43 -11 -51 -89 -4 -33 -9 -71 -11 -85 -4 -24 -6 -40 -20 -145 -4 -27 -8
-60 -10 -71 -2 -12 -6 -47 -10 -78 -8 -60 -19 -74 -23 -28 -1 15 -6 52 -12 82
-5 30 -12 71 -15 90 -3 19 -8 46 -10 60 -3 14 -7 43 -10 65 -3 22 -7 49 -9 60
-2 12 -7 46 -11 78 l-7 57 -38 0 -37 0 -11 -77 c-6 -43 -14 -89 -16 -103 -2
-14 -14 -83 -26 -155 -13 -71 -24 -136 -25 -145 -2 -8 -4 -26 -4 -39 -1 -13
-3 -22 -5 -20 -4 4 -9 32 -21 129 -3 25 -8 56 -10 70 -2 14 -7 49 -10 79 -4
30 -8 61 -10 70 -1 9 -6 43 -10 76 -13 118 -14 120 -64 117z"/>
<path d="M3174 5303 c-8 -8 -14 -25 -14 -38 0 -13 -6 -54 -14 -92 -8 -37 -17
-86 -20 -108 -3 -22 -11 -62 -16 -90 -16 -81 -19 -96 -35 -185 -8 -47 -17 -96
-20 -110 -3 -14 -8 -44 -12 -67 l-6 -43 42 0 c24 0 44 5 46 13 4 11 25 136 27
165 2 19 137 19 150 -1 3 -5 10 -35 14 -66 4 -31 8 -59 10 -63 1 -5 2 -17 3
-28 1 -17 8 -20 47 -20 l47 0 -7 33 c-4 17 -9 43 -11 57 -2 14 -13 75 -24 135
-11 61 -36 200 -57 310 -20 110 -37 201 -37 202 -1 1 -24 3 -50 6 -34 3 -53
-1 -63 -10z m75 -228 c6 -39 13 -79 15 -90 2 -11 7 -42 10 -70 4 -27 9 -57 12
-66 3 -13 -6 -16 -56 -18 -33 -1 -60 2 -60 6 0 8 19 124 25 153 2 8 9 55 16
103 14 97 20 94 38 -18z"/>
<path d="M4168 5312 l-38 -3 0 -370 0 -369 45 0 45 0 0 140 0 140 23 0 c22 0
27 -11 62 -132 21 -73 41 -137 45 -141 4 -5 25 -7 47 -5 l40 3 -42 147 c-42
147 -42 148 -22 165 30 27 49 80 54 158 7 99 -11 179 -51 222 -29 32 -39 36
-102 42 -38 3 -86 5 -106 3z m132 -82 c27 -14 40 -64 40 -152 0 -112 -28 -158
-94 -158 l-26 0 0 160 0 160 31 0 c17 0 39 -4 49 -10z"/>
<path d="M4543 5303 c-3 -8 -6 -176 -7 -374 l-1 -359 45 0 45 0 0 370 c0 324
-2 370 -15 371 -8 0 -26 2 -38 3 -13 2 -26 -4 -29 -11z"/>
<path d="M5183 5312 l-33 -3 0 -370 0 -369 45 0 45 0 -1 133 c0 72 0 148 0
167 l1 35 68 -1 c37 -1 72 -2 77 -3 7 -1 10 -62 10 -166 l-1 -165 46 0 45 0
-1 365 c0 201 -3 367 -5 369 -2 2 -15 5 -29 6 -58 5 -55 12 -55 -147 1 -204 7
-189 -75 -188 -38 0 -71 3 -74 6 -3 3 -6 78 -7 167 -1 111 -5 162 -13 164 -6
2 -26 2 -43 0z"/>
<path d="M5750 5310 c-60 -6 -59 -4 -74 -115 -3 -22 -9 -51 -12 -65 -3 -14 -7
-34 -8 -45 -4 -22 -22 -121 -31 -170 -3 -16 -14 -77 -25 -135 -11 -58 -22
-118 -25 -135 -3 -16 -7 -40 -10 -52 -5 -21 -2 -23 39 -23 43 0 44 1 52 38 4
20 8 44 9 52 1 8 5 34 9 58 8 43 9 44 71 44 86 0 81 4 94 -71 7 -38 14 -78 16
-88 2 -10 4 -21 4 -25 1 -5 22 -8 47 -8 38 0 45 3 40 18 -3 9 -7 33 -10 52 -3
19 -7 44 -10 55 -5 26 -94 511 -101 552 -11 65 -15 68 -75 63z m24 -226 c3
-27 13 -87 21 -134 22 -122 24 -116 -40 -118 -46 -1 -55 2 -55 16 0 9 12 89
27 176 28 162 33 169 47 60z"/>
<path d="M6033 5307 c-3 -5 -5 -171 -6 -370 l0 -362 44 -3 45 -3 -1 138 0 138
27 3 c23 3 27 -1 36 -40 6 -24 23 -86 39 -138 l29 -95 46 -3 46 -3 -20 68
c-72 250 -69 235 -49 249 67 48 78 306 15 375 -10 12 -31 27 -45 35 -30 15
-198 24 -206 11z m167 -77 c25 -14 40 -70 40 -153 0 -109 -31 -159 -96 -154
l-29 2 -1 150 c0 83 1 153 3 158 6 10 61 9 83 -3z"/>
<path d="M6455 5312 c-20 -3 -20 -10 -18 -360 1 -196 2 -363 2 -370 1 -10 25
-13 101 -11 114 2 148 16 184 79 20 33 21 51 21 285 0 287 -6 315 -73 353 -35
19 -157 33 -217 24z m173 -92 c11 -11 24 -37 28 -57 10 -49 10 -397 1 -444
-11 -54 -40 -79 -91 -79 l-43 0 0 300 0 300 42 0 c27 0 48 -7 63 -20z"/>
<path d="M7763 5312 l-43 -3 0 -370 0 -369 43 0 42 0 0 259 c0 143 3 257 6
253 3 -4 17 -45 31 -92 15 -47 50 -160 79 -252 l53 -168 46 0 45 0 1 368 c0
202 -4 369 -8 373 -4 3 -23 3 -43 1 l-35 -4 -2 -256 -3 -255 -79 249 c-43 137
-81 254 -85 259 -3 6 -25 9 -48 7z"/>
<path d="M3501 4940 l-2 -370 46 0 45 0 2 255 3 255 42 -133 c23 -72 59 -187
80 -254 l38 -123 46 0 47 0 0 370 0 370 -43 0 -44 0 1 -245 c0 -135 -2 -248
-4 -251 -5 -4 -47 121 -130 388 l-33 108 -46 0 -46 0 -2 -370z"/>
<path d="M3235 4410 c-3 -5 -4 -10 -1 -10 2 0 0 -15 -5 -32 -5 -18 -12 -46
-15 -63 -3 -16 -10 -50 -15 -75 -27 -115 -32 -157 -20 -165 6 -3 11 -2 11 3 0
8 23 118 56 267 14 66 15 85 6 85 -6 0 -14 -4 -17 -10z"/>
<path d="M5486 4408 c-3 -11 -24 -114 -42 -203 -2 -11 -10 -46 -18 -77 -11
-46 -11 -58 -1 -58 11 0 23 36 41 120 9 45 23 114 29 140 14 65 16 90 5 90 -6
0 -12 -6 -14 -12z"/>
<path d="M3655 4386 c-20 -20 -22 -33 -24 -132 0 -60 4 -121 10 -136 14 -33
54 -45 79 -23 13 12 19 13 22 4 11 -33 23 7 23 77 l0 77 -32 3 c-27 2 -33 -1
-33 -17 0 -10 6 -18 13 -16 8 1 13 -14 15 -44 3 -50 -13 -74 -42 -63 -23 9
-24 235 -1 254 12 10 18 10 30 0 8 -7 15 -19 15 -26 0 -8 7 -14 15 -14 8 0 15
8 15 18 0 53 -66 77 -105 38z"/>
<path d="M4749 4391 c-18 -15 -23 -28 -23 -67 1 -43 5 -52 41 -83 48 -44 61
-66 55 -96 -6 -34 -33 -41 -54 -15 -10 12 -18 28 -18 36 0 8 -7 14 -15 14 -33
0 -7 -76 31 -90 36 -14 71 -3 83 28 21 49 10 84 -41 132 -38 36 -48 53 -48 78
0 20 6 35 18 41 22 12 42 -3 42 -31 0 -10 7 -18 15 -18 20 0 20 53 1 69 -25
21 -63 22 -87 2z"/>
<path d="M5003 4388 c-15 -17 -18 -39 -18 -144 0 -115 2 -125 23 -146 22 -22
24 -22 52 -6 19 11 30 13 33 5 2 -6 8 -8 13 -5 7 5 11 125 5 159 0 4 -14 6
-31 5 -34 -1 -48 -22 -19 -29 28 -8 30 -83 1 -104 -22 -18 -30 -16 -38 9 -12
38 -7 217 6 233 18 21 29 19 40 -10 11 -29 40 -34 40 -7 0 51 -73 78 -107 40z"/>
<path d="M5949 4391 c-23 -18 -24 -26 -25 -140 -2 -134 6 -157 59 -167 20 -3
34 2 52 20 24 24 25 31 25 139 0 95 -3 119 -17 136 -25 30 -66 35 -94 12z m72
-35 c1 -6 2 -55 3 -110 2 -81 -1 -102 -15 -120 -17 -20 -19 -20 -35 -4 -14 13
-17 36 -17 122 0 66 5 111 12 120 13 16 50 10 52 -8z"/>
<path d="M2845 4268 c1 -131 11 -176 38 -179 7 -1 22 -3 34 -4 12 -1 31 6 43
17 22 20 21 19 23 183 0 101 -1 110 -19 113 -18 3 -19 -4 -17 -105 3 -130 -2
-169 -25 -178 -33 -12 -42 22 -42 157 0 116 -2 128 -18 128 -16 0 -18 -12 -17
-132z"/>
<path d="M3029 4388 c0 -16 0 -280 0 -290 1 -5 8 -8 16 -8 17 0 17 -4 17 165
0 69 -1 130 -1 135 -1 15 -31 12 -32 -2z"/>
<path d="M3369 4393 c0 -5 -2 -74 -2 -156 l-2 -147 46 0 c72 0 83 20 86 144 3
111 -7 151 -40 160 -31 8 -87 7 -88 -1z m81 -38 c14 -16 18 -176 5 -214 -4
-13 -15 -21 -29 -21 -22 0 -22 2 -23 125 0 112 1 125 17 125 10 0 23 -7 30
-15z"/>
<path d="M3549 4383 c-1 -22 -1 -251 0 -275 1 -10 9 -18 19 -18 15 0 17 13 15
145 0 80 -2 150 -2 155 -2 18 -31 11 -32 -7z"/>
<path d="M3819 4398 c0 -2 -1 -72 -2 -156 -2 -139 0 -152 16 -152 9 0 17 6 18
13 1 16 1 257 0 280 -1 13 -28 26 -32 15z"/>
<path d="M3887 4394 c-10 -11 2 -24 22 -24 17 0 18 -11 19 -127 0 -162 -1
-153 20 -153 15 0 17 13 16 140 l-2 140 24 0 c15 0 24 6 24 15 0 12 -13 15
-58 15 -32 0 -62 -3 -65 -6z"/>
<path d="M4049 4383 c0 -10 -2 -25 -4 -33 -2 -8 -6 -29 -9 -46 -3 -17 -13 -66
-21 -110 -19 -98 -19 -104 0 -104 8 0 19 16 25 40 9 35 14 40 40 40 19 0 30
-5 31 -15 1 -8 3 -19 4 -25 1 -5 3 -17 4 -25 0 -8 10 -15 21 -15 16 0 19 5 16
23 -5 19 -14 68 -30 153 -3 12 -7 39 -10 60 -10 64 -16 74 -42 74 -16 0 -24
-6 -25 -17z m36 -74 c3 -13 8 -43 11 -66 5 -41 4 -43 -20 -43 -22 0 -26 4 -21
23 8 36 13 70 14 96 1 29 10 23 16 -10z"/>
<path d="M4199 4398 c-1 -4 -1 -281 0 -295 2 -20 101 -17 101 2 0 9 -6 15 -12
14 -56 -7 -55 -10 -54 141 1 127 -1 140 -16 140 -10 0 -18 -1 -19 -2z"/>
<path d="M4385 4245 l0 -155 46 0 c73 0 84 19 85 151 2 95 -1 112 -18 134 -16
20 -28 25 -66 25 l-47 0 0 -155z m91 114 c8 -14 8 -214 -1 -228 -3 -6 -16 -11
-29 -11 -23 0 -23 1 -23 125 1 123 1 125 23 125 13 0 26 -5 30 -11z"/>
<path d="M4568 4393 c-3 -7 -2 -270 1 -295 1 -5 26 -8 57 -8 40 0 55 4 52 13
-3 6 -20 13 -40 15 l-35 3 0 55 0 54 34 0 c23 0 33 5 33 16 0 12 -8 15 -32 12
l-33 -3 -1 58 -2 57 39 0 c28 0 39 4 39 15 0 11 -13 15 -54 15 -30 0 -56 -3
-58 -7z"/>
<path d="M4899 4388 c-3 -44 -4 -275 -1 -285 7 -22 32 -14 33 10 1 33 1 249 0
270 -1 19 -30 24 -32 5z"/>
<path d="M5167 4257 c2 -180 0 -167 21 -167 15 0 17 11 16 105 -1 58 0 105 1
105 3 0 28 -77 40 -120 18 -66 30 -90 47 -90 20 0 20 -2 20 175 -1 142 0 135
-17 135 -17 0 -17 3 -17 -117 0 -51 -2 -93 -4 -93 -2 0 -18 47 -35 105 -28 89
-36 105 -53 105 -20 0 -21 -5 -19 -143z"/>
<path d="M5619 4378 c-1 -28 -1 -270 0 -280 1 -5 8 -8 16 -8 16 0 18 9 16 88
l-2 52 37 0 c45 0 42 24 -4 28 -32 3 -32 4 -32 57 l0 54 38 3 c55 5 45 23 -15
26 -49 3 -53 1 -54 -20z"/>
<path d="M5759 4393 c0 -5 -2 -73 -2 -152 -2 -109 1 -145 11 -149 20 -7 25 4
24 50 -2 58 13 82 27 45 6 -16 11 -32 11 -37 0 -23 25 -60 41 -60 16 0 16 4
-2 61 -16 52 -17 63 -5 82 26 40 24 119 -4 147 -20 20 -99 29 -101 13z m81
-43 c12 -23 6 -86 -11 -106 -22 -27 -38 -4 -37 54 1 31 3 60 5 65 8 14 32 7
43 -13z"/>
<path d="M6109 4373 c0 -16 -1 -84 -1 -153 -1 -117 0 -125 18 -125 17 0 19 8
17 100 -3 115 3 112 43 -17 21 -69 31 -88 46 -88 10 0 18 6 19 13 0 6 1 75 1
152 1 123 -1 140 -15 143 -19 4 -18 6 -19 -138 l0 -85 -25 75 c-27 84 -27 84
-38 123 -4 17 -14 27 -26 27 -14 0 -19 -7 -20 -27z"/>
<path d="M6286 4385 c4 -8 14 -15 24 -15 15 0 17 -13 18 -127 0 -162 -1 -153
20 -153 15 0 17 13 16 139 -1 134 0 140 19 143 11 2 22 9 25 16 3 9 -14 12
-62 12 -54 0 -64 -3 -60 -15z"/>
<path d="M6499 4398 c-1 -4 -1 -281 0 -295 1 -9 19 -13 56 -13 43 0 55 3 55
16 0 10 -8 15 -22 14 -54 -5 -56 -3 -57 55 l0 55 41 0 c35 0 39 2 28 15 -7 8
-26 15 -41 15 -29 0 -29 1 -28 55 l2 55 39 0 c27 0 38 4 38 15 0 12 -13 15
-55 15 -30 0 -55 -1 -56 -2z"/>
<path d="M6646 4277 c3 -194 2 -187 22 -187 15 0 17 11 15 105 -1 58 0 105 1
105 2 0 18 -47 36 -105 27 -82 38 -105 52 -105 21 0 20 -9 20 150 0 168 1 162
-19 158 -15 -3 -17 -17 -17 -113 l1 -110 -35 113 c-31 95 -39 112 -56 112 -20
0 -21 -5 -20 -123z"/>
<path d="M6849 4388 c-1 -7 -2 -77 -2 -155 l-2 -143 47 0 c38 0 50 5 66 25 17
22 20 39 18 134 -1 131 -12 151 -83 151 -27 0 -43 -5 -44 -12z m81 -32 c13
-16 17 -179 5 -216 -5 -15 -13 -20 -28 -18 -21 3 -22 8 -23 126 -1 109 1 122
16 122 10 0 23 -6 30 -14z"/>
<path d="M4270 3942 c0 -9 595 -1182 600 -1182 5 0 600 1173 600 1183 0 4 -47
2 -80 -2 -3 -1 -120 -228 -260 -506 -140 -278 -257 -505 -260 -505 -3 0 -120
228 -261 507 l-257 507 -41 2 c-22 0 -41 -1 -41 -4z"/>
</g>
</svg>
