<svg xmlns="http://www.w3.org/2000/svg" width="758.75" height="557.001" viewBox="0 0 758.75 557.001">
	<path d="M424.5,557h0L309.637,358h2.309L424.5,553,537.053,358h2.309L424.5,557ZM168.225,109h-2.311L103,0H746L683.086,109h-2.31L742.536,2H106.464l61.76,107Z" transform="translate(-35.875 0)" fill="#000" />
	<g transform="translate(-19.074 147.724)">
		<path d="M7.875,0V-87.5h15.5q9.25,0,14.375,5.875T42.875-60.5v.625q0,19-9.25,24.125L44,0H33.75L24-33.5H17.875V0ZM33-58.625v-3.75Q33-72,30.438-75.75a8.1,8.1,0,0,0-7.062-3.75h-5.5v38.125h5.5Q33-41.375,33-58.625Zm60.5-2.75v35.25q0,15.875-5.062,21.938t-14.5,6.063q-9.437,0-14.5-6.062T54.375-26.125v-35.25q0-15.875,5.063-21.937t14.5-6.062q9.437,0,14.5,6.063T93.5-61.375ZM83.625-24.25v-39q0-18-9.625-18a8.143,8.143,0,0,0-7.187,3.875Q64.25-73.5,64.25-63.25v39q0,10.25,2.563,14.125A8.143,8.143,0,0,0,74-6.25Q83.625-6.25,83.625-24.25ZM146.125,0,135.75-63.625,125.375,0h-10.25L102-87.5h10l9,67,11-67h7.75l10.625,66.875L159.5-87.5h10L156.375,0Zm61.25,0L203.5-22.75H185.875L182.125,0h-10l16-87.5h13.25l16,87.5ZM194.75-74.875l-7.5,44.125h14.875ZM237,0h-9.75V-87.5h10.375L258-23.5v-64h9.75V0H257.375L237-63.875Zm64.5,0V-87.5H317q9.25,0,14.375,5.875T336.5-60.5v.625q0,19-9.25,24.125L337.625,0h-10.25l-9.75-33.5H311.5V0Zm25.125-58.625v-3.75q0-9.625-2.562-13.375A8.1,8.1,0,0,0,317-79.5h-5.5v38.125H317Q326.625-41.375,326.625-58.625ZM349.75,0V-87.5h10V0Zm33.875-24.125q0,10.25,2.375,14.063a7.52,7.52,0,0,0,6.75,3.813,7.34,7.34,0,0,0,6.563-3.312q2.188-3.313,2.938-12.562L411-21q-1.125,12.75-5.687,17.813T392.25,1.875q-8.5,0-13.5-6.125t-5-22.5v-34q0-16.375,5-22.5a16.449,16.449,0,0,1,13.438-6.125q8.438,0,12.875,4.375T410.5-69.375l-9.125,2.25q-.75-8-2.812-11.062a6.9,6.9,0,0,0-6.125-3.062A7.236,7.236,0,0,0,386-77.312q-2.375,3.938-2.375,14.437ZM451.125,0V-39.625H432.25V0h-10V-87.5h10v39.875h18.875V-87.5H461V0Zm55,0L502.25-22.75H484.625L480.875,0h-10l16-87.5h13.25l16,87.5ZM493.5-74.875,486-30.75h14.875ZM526,0V-87.5h15.5q9.25,0,14.375,5.875T561-60.5v.625q0,19-9.25,24.125L562.125,0h-10.25l-9.75-33.5H536V0Zm25.125-58.625v-3.75q0-9.625-2.562-13.375A8.1,8.1,0,0,0,541.5-79.5H536v38.125h5.5Q551.125-41.375,551.125-58.625ZM574.25,0V-87.5h17q9.5,0,14.625,6.063T611-59.5V-28q0,15.875-5.125,21.938T591.25,0Zm26.875-25.75V-61.625q0-17.875-9.875-17.875h-7V-7.875h7Q601.125-7.875,601.125-25.75Zm50.75,6.125q0-10-6.75-15.375l-10-7.375q-11.25-8-11.25-23.625,0-13,4.938-18.187t13.5-5.187q8.562,0,13.313,4.813t5.75,17.438L651.875-65q-.5-16-9.312-16T633.75-67.375a30.1,30.1,0,0,0,1.313,9.75,15.094,15.094,0,0,0,5.063,6.75L650-43.5a38.759,38.759,0,0,1,5.625,4.75,22.709,22.709,0,0,1,4.063,7.188,31.94,31.94,0,0,1,1.938,11.688q0,12-5.187,16.875T642.375,1.875q-8.875,0-13.875-5.75t-6.125-20.5L631.75-26q.5,10.625,3.063,15.125T642-6.375Q651.875-6.375,651.875-19.625Zm60.25-41.75v35.25q0,15.875-5.062,21.938t-14.5,6.063q-9.438,0-14.5-6.062T673-26.125v-35.25q0-15.875,5.063-21.937t14.5-6.062q9.438,0,14.5,6.063T712.125-61.375ZM702.25-24.25v-39q0-18-9.625-18a8.143,8.143,0,0,0-7.187,3.875q-2.562,3.875-2.562,14.125v39q0,10.25,2.563,14.125a8.143,8.143,0,0,0,7.188,3.875Q702.25-6.25,702.25-24.25ZM735.875,0h-9.75V-87.5H736.5l20.375,64v-64h9.75V0H756.25L735.875-63.875Z" transform="translate(11.199 90.276)" fill="#000" />
		<path d="M10.113-36.073v19.105H5.292V-59.156H19.756V-55.3H10.113V-39.93h8.739v3.857ZM24.759-16.968V-59.156h7.473a8.709,8.709,0,0,1,6.931,2.833q2.471,2.833,2.471,10.185v.3q0,9.161-4.46,11.632l5,17.237H37.234l-4.7-16.152H29.58v16.152ZM36.873-45.234v-1.808q0-4.641-1.236-6.449A3.907,3.907,0,0,0,32.232-55.3H29.58v18.382h2.652Q36.873-36.917,36.873-45.234Zm29.17-1.326v17q0,7.654-2.441,10.577a8.6,8.6,0,0,1-6.991,2.923,8.6,8.6,0,0,1-6.991-2.923q-2.441-2.923-2.441-10.577v-17q0-7.654,2.441-10.577a8.6,8.6,0,0,1,6.991-2.923A8.6,8.6,0,0,1,63.6-57.137Q66.043-54.214,66.043-46.56Zm-4.761,17.9v-18.8q0-8.679-4.641-8.679a3.926,3.926,0,0,0-3.465,1.868q-1.236,1.868-1.236,6.81v18.8q0,4.942,1.236,6.81a3.926,3.926,0,0,0,3.465,1.868Q61.282-19.981,61.282-28.66ZM77.494-16.968h-4.7V-59.156h5L87.619-28.3V-59.156h4.7v42.188h-5l-9.824-30.8ZM96.9-55.3v-3.857h16.453V-55.3h-5.846v38.331h-4.761V-55.3Zm25.855,19.226v15.248h10.487v3.857H117.934V-59.156h15.127V-55.3H122.756V-39.93h9.4v3.857Zm21.516,19.105h-4.7V-59.156h5L154.4-28.3V-59.156h4.7v42.188h-5l-9.824-30.8Zm22.42,0V-59.156h8.2a8.721,8.721,0,0,1,7.051,2.923q2.471,2.923,2.471,10.577v15.188q0,7.654-2.471,10.577a8.721,8.721,0,0,1-7.051,2.923Zm12.958-12.415v-17.3q0-8.618-4.761-8.618h-3.375v34.534h3.375Q179.649-20.765,179.649-29.383Zm20.19,12.415V-59.156h8.2a8.721,8.721,0,0,1,7.051,2.923q2.471,2.923,2.471,10.577v15.188q0,7.654-2.471,10.577a8.721,8.721,0,0,1-7.051,2.923ZM212.8-29.383v-17.3q0-8.618-4.761-8.618h-3.375v34.534h3.375Q212.8-20.765,212.8-29.383Zm16.333-6.69v15.248h10.487v3.857H224.308V-59.156h15.127V-55.3H229.13V-39.93h9.4v3.857Zm18.8-23.083,6.027,35.2,6.027-35.2h4.821l-7.835,42.188h-6.027l-7.835-42.188Zm26.458,23.083v15.248h10.487v3.857H269.57V-59.156H284.7V-55.3H274.391V-39.93h9.4v3.857Zm16.815,19.105V-59.156h4.821v38.331h9.342v3.857ZM328.091-46.56v17q0,7.654-2.441,10.577a8.6,8.6,0,0,1-6.991,2.923,8.6,8.6,0,0,1-6.991-2.923q-2.441-2.923-2.441-10.577v-17q0-7.654,2.441-10.577a8.6,8.6,0,0,1,6.991-2.923,8.6,8.6,0,0,1,6.991,2.923Q328.091-54.214,328.091-46.56Zm-4.761,17.9v-18.8q0-8.679-4.641-8.679a3.926,3.926,0,0,0-3.465,1.868q-1.235,1.868-1.235,6.81v18.8q0,4.942,1.235,6.81a3.926,3.926,0,0,0,3.465,1.868Q323.33-19.981,323.33-28.66Zm11.511,11.692V-59.156h7.473a8.56,8.56,0,0,1,6.961,2.923q2.441,2.923,2.441,10.577v.3q0,7.654-2.441,10.547a8.6,8.6,0,0,1-6.961,2.893h-2.652v14.947Zm12.114-27.6v-1.868q0-8.859-4.641-8.859h-2.652v19.587h2.652Q346.955-35.711,346.955-44.571Zm14.585,8.5v15.248h10.487v3.857H356.718V-59.156h15.127V-55.3H361.54V-39.93h9.4v3.857Zm16.815,19.105V-59.156h7.473a8.708,8.708,0,0,1,6.931,2.833q2.471,2.833,2.471,10.185v.3q0,9.161-4.46,11.632l5,17.237h-4.942l-4.7-16.152h-2.953v16.152Zm12.114-28.266v-1.808q0-4.641-1.236-6.449a3.907,3.907,0,0,0-3.405-1.808h-2.652v18.382h2.652Q390.469-36.917,390.469-45.234Z" transform="translate(208.077 184.938)" fill="#999" />
	</g>
</svg>
